<svg enable-background="new 0 0 200 200" viewBox="0 0 200 200" xmlns="http://www.w3.org/2000/svg"><path d="m5 0c1.105 0 2 .895 2 2s-.895 2-2 2-2-.895-2-2 .895-2 2-2zm27 0c1.105 0 2 .895 2 2s-.895 2-2 2-2-.895-2-2 .895-2 2-2zm27 0c1.105 0 2 .895 2 2s-.895 2-2 2-2-.895-2-2 .895-2 2-2z" fill="#888"/><path clip-rule="evenodd" d="m0 20h64v3h-64z" fill="#bbb" fill-rule="evenodd"/><path d="m48 50.707-8-8-8 8-8-8-8 8-8-8-7 7-.707-.707 7.707-7.707 8 8 8-8 8 8 8-8 8 8 8-8 7.707 7.707-.707.707-7-7z" fill="#bbb"/><path clip-rule="evenodd" d="m0 121h200v1h-200z" fill="#ababab" fill-rule="evenodd"/><path d="m0 141h200v1h-200z" fill="#222"/><g fill="#2f2f2f"><path d="m0 189h85v1h-85z"/><path d="m116 189h84v1h-84z"/><path d="m100.5 185c-2.481 0-4.5 2.019-4.5 4.5s2.019 4.5 4.5 4.5 4.5-2.019 4.5-4.5-2.019-4.5-4.5-4.5zm0 8c-1.93 0-3.5-1.57-3.5-3.5s1.57-3.5 3.5-3.5 3.5 1.57 3.5 3.5-1.57 3.5-3.5 3.5z"/><path clip-rule="evenodd" d="m0 60h2v60h-2z" fill-rule="evenodd"/><path clip-rule="evenodd" d="m200 169h-91.294l-8.19-8.19-8.19 8.19h-92.326v1h92.326l8.19 8.19 8.19-8.19h91.294zm-99.484 7.776-7.276-7.276 7.276-7.276 7.276 7.276z" fill-rule="evenodd"/></g></svg>