<svg version="1.1" id="Layer_1" xmlns="http://www.w3.org/2000/svg" xmlns:xlink="http://www.w3.org/1999/xlink" x="0" y="0" viewBox="0 0 200 200" xml:space="preserve" enable-background="new 0 0 200 200"><style type="text/css">.st0{fill:#777}.st1{fill-rule:evenodd;clip-rule:evenodd;fill:#333}.st2{enable-background:new}.st3{fill:#333}.st4{fill-rule:evenodd;clip-rule:evenodd;fill:#555}.st5{fill:#ddd}.st6,.st7{fill:#d0d0d0}.st7{fill-rule:evenodd;clip-rule:evenodd}</style><g><path class="st0" d="M5,0c1.1,0,2,0.9,2,2S6.1,4,5,4S3,3.1,3,2S3.9,0,5,0z M32,0c1.1,0,2,0.9,2,2s-0.9,2-2,2c-1.1,0-2-0.9-2-2 S30.9,0,32,0z M59,0c1.1,0,2,0.9,2,2s-0.9,2-2,2s-2-0.9-2-2S57.9,0,59,0z"/></g><g><path class="st1" d="M0,20h64v3H0V20z"/></g><g class="st2"><polygon class="st3" points="48,48.7 40,40.7 32,48.7 24,40.7 16,48.7 8,40.7 1,47.7 0.3,47 8,39.3 16,47.3 24,39.3 32,47.3 40,39.3 48,47.3 56,39.3 63.7,47 63,47.7 56,40.7"/></g><g><path class="st4" d="M0,121h200v1H0V121z"/></g><g><rect y="141" class="st5" width="200" height="1"/></g><g><rect y="189" class="st6" width="85" height="1"/><rect x="116" y="189" class="st6" width="84" height="1"/><path class="st6" d="M100.5,185c-2.5,0-4.5,2-4.5,4.5s2,4.5,4.5,4.5s4.5-2,4.5-4.5S103,185,100.5,185z M100.5,193 c-1.9,0-3.5-1.6-3.5-3.5s1.6-3.5,3.5-3.5s3.5,1.6,3.5,3.5S102.4,193,100.5,193z"/></g><g><g><path class="st7" d="M0,60h2v60H0V60z"/></g></g><path class="st7" d="M200,169h-91.3l-8.2-8.2l-8.2,8.2H0v1h92.3l8.2,8.2l8.2-8.2H200V169z M100.5,176.8l-7.3-7.3l7.3-7.3l7.3,7.3	L100.5,176.8z"/></svg>